<mxfile host="app.diagrams.net" modified="2023-02-18T03:54:07.720Z" agent="5.0 (Macintosh; Intel Mac OS X 10_15_7) AppleWebKit/537.36 (KHTML, like Gecko) Chrome/109.0.0.0 Safari/537.36" etag="nT3ff5vf166k5yfio70h" version="20.8.13" type="github">
  <diagram id="E8vukdnMMbUyhClpUfTw" name="第 1 页">
    <mxGraphModel dx="2133" dy="755" grid="1" gridSize="10" guides="1" tooltips="1" connect="1" arrows="1" fold="1" page="1" pageScale="1" pageWidth="827" pageHeight="1169" math="0" shadow="0">
      <root>
        <mxCell id="0" />
        <mxCell id="1" parent="0" />
        <mxCell id="Rtg441aMns1zuGuYdtn2-21" value="d" style="rounded=1;whiteSpace=wrap;html=1;fillColor=default;dashed=1;dashPattern=8 8;" vertex="1" parent="1">
          <mxGeometry x="-80" y="1012.5" width="460" height="90" as="geometry" />
        </mxCell>
        <mxCell id="fGobJS1pri8Xf5XPc38N-7" value="" style="edgeStyle=orthogonalEdgeStyle;rounded=0;orthogonalLoop=1;jettySize=auto;html=1;" parent="1" source="fGobJS1pri8Xf5XPc38N-1" target="fGobJS1pri8Xf5XPc38N-2" edge="1">
          <mxGeometry relative="1" as="geometry" />
        </mxCell>
        <mxCell id="fGobJS1pri8Xf5XPc38N-1" value="Python kernel" style="rounded=1;whiteSpace=wrap;html=1;" parent="1" vertex="1">
          <mxGeometry x="70" y="280" width="100" height="50" as="geometry" />
        </mxCell>
        <mxCell id="fGobJS1pri8Xf5XPc38N-8" value="" style="edgeStyle=orthogonalEdgeStyle;rounded=0;orthogonalLoop=1;jettySize=auto;html=1;" parent="1" source="fGobJS1pri8Xf5XPc38N-2" target="fGobJS1pri8Xf5XPc38N-3" edge="1">
          <mxGeometry relative="1" as="geometry" />
        </mxCell>
        <mxCell id="fGobJS1pri8Xf5XPc38N-2" value="Triton IR" style="rounded=1;whiteSpace=wrap;html=1;fillColor=#dae8fc;strokeColor=#6c8ebf;" parent="1" vertex="1">
          <mxGeometry x="250" y="280" width="100" height="50" as="geometry" />
        </mxCell>
        <mxCell id="fGobJS1pri8Xf5XPc38N-9" value="" style="edgeStyle=orthogonalEdgeStyle;rounded=0;orthogonalLoop=1;jettySize=auto;html=1;" parent="1" source="fGobJS1pri8Xf5XPc38N-3" target="fGobJS1pri8Xf5XPc38N-4" edge="1">
          <mxGeometry relative="1" as="geometry" />
        </mxCell>
        <mxCell id="fGobJS1pri8Xf5XPc38N-3" value="TritonGPU IR" style="rounded=1;whiteSpace=wrap;html=1;fillColor=#dae8fc;strokeColor=#6c8ebf;" parent="1" vertex="1">
          <mxGeometry x="430" y="280" width="100" height="50" as="geometry" />
        </mxCell>
        <mxCell id="fGobJS1pri8Xf5XPc38N-10" value="" style="edgeStyle=orthogonalEdgeStyle;rounded=0;orthogonalLoop=1;jettySize=auto;html=1;" parent="1" source="fGobJS1pri8Xf5XPc38N-4" target="fGobJS1pri8Xf5XPc38N-5" edge="1">
          <mxGeometry relative="1" as="geometry" />
        </mxCell>
        <mxCell id="fGobJS1pri8Xf5XPc38N-4" value="LLVM IR" style="rounded=1;whiteSpace=wrap;html=1;" parent="1" vertex="1">
          <mxGeometry x="600" y="280" width="100" height="50" as="geometry" />
        </mxCell>
        <mxCell id="fGobJS1pri8Xf5XPc38N-11" value="" style="edgeStyle=orthogonalEdgeStyle;rounded=0;orthogonalLoop=1;jettySize=auto;html=1;" parent="1" source="fGobJS1pri8Xf5XPc38N-5" target="fGobJS1pri8Xf5XPc38N-6" edge="1">
          <mxGeometry relative="1" as="geometry" />
        </mxCell>
        <mxCell id="fGobJS1pri8Xf5XPc38N-5" value="PTX" style="rounded=1;whiteSpace=wrap;html=1;" parent="1" vertex="1">
          <mxGeometry x="600" y="370" width="100" height="50" as="geometry" />
        </mxCell>
        <mxCell id="fGobJS1pri8Xf5XPc38N-6" value="CUBIN" style="rounded=1;whiteSpace=wrap;html=1;" parent="1" vertex="1">
          <mxGeometry x="600" y="460" width="100" height="50" as="geometry" />
        </mxCell>
        <mxCell id="CsNQRY7TSgWazH-UtWr6-1" value="" style="curved=1;endArrow=classic;html=1;rounded=0;exitX=0.5;exitY=0;exitDx=0;exitDy=0;entryX=0.5;entryY=1;entryDx=0;entryDy=0;dashed=1;" parent="1" source="fGobJS1pri8Xf5XPc38N-2" target="fGobJS1pri8Xf5XPc38N-2" edge="1">
          <mxGeometry width="50" height="50" relative="1" as="geometry">
            <mxPoint x="390" y="410" as="sourcePoint" />
            <mxPoint x="440" y="360" as="targetPoint" />
            <Array as="points">
              <mxPoint x="350" y="230" />
              <mxPoint x="390" y="300" />
              <mxPoint x="360" y="370" />
            </Array>
          </mxGeometry>
        </mxCell>
        <mxCell id="CsNQRY7TSgWazH-UtWr6-2" value="Pass" style="edgeLabel;html=1;align=center;verticalAlign=middle;resizable=0;points=[];" parent="CsNQRY7TSgWazH-UtWr6-1" vertex="1" connectable="0">
          <mxGeometry x="-0.6696" y="-7" relative="1" as="geometry">
            <mxPoint as="offset" />
          </mxGeometry>
        </mxCell>
        <mxCell id="CsNQRY7TSgWazH-UtWr6-3" value="" style="curved=1;endArrow=classic;html=1;rounded=0;exitX=0.5;exitY=0;exitDx=0;exitDy=0;entryX=0.5;entryY=1;entryDx=0;entryDy=0;dashed=1;" parent="1" edge="1">
          <mxGeometry width="50" height="50" relative="1" as="geometry">
            <mxPoint x="480" y="279" as="sourcePoint" />
            <mxPoint x="480" y="329" as="targetPoint" />
            <Array as="points">
              <mxPoint x="530" y="229" />
              <mxPoint x="570" y="299" />
              <mxPoint x="540" y="369" />
            </Array>
          </mxGeometry>
        </mxCell>
        <mxCell id="CsNQRY7TSgWazH-UtWr6-4" value="Pass" style="edgeLabel;html=1;align=center;verticalAlign=middle;resizable=0;points=[];" parent="CsNQRY7TSgWazH-UtWr6-3" vertex="1" connectable="0">
          <mxGeometry x="-0.6696" y="-7" relative="1" as="geometry">
            <mxPoint as="offset" />
          </mxGeometry>
        </mxCell>
        <mxCell id="GbZqD4_osrSMRL3oigE0-34" style="edgeStyle=none;rounded=0;orthogonalLoop=1;jettySize=auto;html=1;exitX=1;exitY=0.5;exitDx=0;exitDy=0;entryX=0;entryY=0.5;entryDx=0;entryDy=0;" parent="1" source="GbZqD4_osrSMRL3oigE0-1" target="GbZqD4_osrSMRL3oigE0-3" edge="1">
          <mxGeometry relative="1" as="geometry" />
        </mxCell>
        <mxCell id="GbZqD4_osrSMRL3oigE0-1" value="TritonIR" style="rounded=1;whiteSpace=wrap;html=1;fillColor=#dae8fc;strokeColor=#6c8ebf;" parent="1" vertex="1">
          <mxGeometry x="-119" y="701" width="90" height="45" as="geometry" />
        </mxCell>
        <mxCell id="GbZqD4_osrSMRL3oigE0-35" style="edgeStyle=none;rounded=0;orthogonalLoop=1;jettySize=auto;html=1;exitX=1;exitY=0.5;exitDx=0;exitDy=0;entryX=0;entryY=0.5;entryDx=0;entryDy=0;" parent="1" source="GbZqD4_osrSMRL3oigE0-3" target="GbZqD4_osrSMRL3oigE0-14" edge="1">
          <mxGeometry relative="1" as="geometry" />
        </mxCell>
        <mxCell id="GbZqD4_osrSMRL3oigE0-3" value="" style="rounded=1;whiteSpace=wrap;html=1;fillColor=#f8cecc;strokeColor=#b85450;" parent="1" vertex="1">
          <mxGeometry x="30" y="608.5" width="120" height="230" as="geometry" />
        </mxCell>
        <mxCell id="GbZqD4_osrSMRL3oigE0-4" value="Inliner" style="rounded=0;whiteSpace=wrap;html=1;strokeColor=none;" parent="1" vertex="1">
          <mxGeometry x="40" y="628.5" width="100" height="30" as="geometry" />
        </mxCell>
        <mxCell id="GbZqD4_osrSMRL3oigE0-5" value="Combine" style="rounded=0;whiteSpace=wrap;html=1;strokeColor=none;" parent="1" vertex="1">
          <mxGeometry x="40" y="668.5" width="100" height="30" as="geometry" />
        </mxCell>
        <mxCell id="GbZqD4_osrSMRL3oigE0-7" value="Canonicalizer" style="rounded=0;whiteSpace=wrap;html=1;strokeColor=none;" parent="1" vertex="1">
          <mxGeometry x="40" y="708.5" width="100" height="30" as="geometry" />
        </mxCell>
        <mxCell id="GbZqD4_osrSMRL3oigE0-8" value="CSE" style="rounded=0;whiteSpace=wrap;html=1;strokeColor=none;" parent="1" vertex="1">
          <mxGeometry x="40" y="748.5" width="100" height="30" as="geometry" />
        </mxCell>
        <mxCell id="GbZqD4_osrSMRL3oigE0-9" value="Licm" style="rounded=0;whiteSpace=wrap;html=1;strokeColor=none;" parent="1" vertex="1">
          <mxGeometry x="40" y="788.5" width="100" height="30" as="geometry" />
        </mxCell>
        <mxCell id="GbZqD4_osrSMRL3oigE0-32" style="rounded=0;orthogonalLoop=1;jettySize=auto;html=1;exitX=0.5;exitY=0;exitDx=0;exitDy=0;entryX=0.5;entryY=1;entryDx=0;entryDy=0;" parent="1" source="GbZqD4_osrSMRL3oigE0-14" target="GbZqD4_osrSMRL3oigE0-25" edge="1">
          <mxGeometry relative="1" as="geometry" />
        </mxCell>
        <mxCell id="GbZqD4_osrSMRL3oigE0-14" value="TritonIR" style="rounded=1;whiteSpace=wrap;html=1;fillColor=#dae8fc;strokeColor=#6c8ebf;" parent="1" vertex="1">
          <mxGeometry x="200" y="701" width="90" height="45" as="geometry" />
        </mxCell>
        <mxCell id="GbZqD4_osrSMRL3oigE0-39" style="edgeStyle=none;rounded=0;orthogonalLoop=1;jettySize=auto;html=1;exitX=1;exitY=0.5;exitDx=0;exitDy=0;entryX=0;entryY=0.5;entryDx=0;entryDy=0;" parent="1" source="GbZqD4_osrSMRL3oigE0-15" target="GbZqD4_osrSMRL3oigE0-38" edge="1">
          <mxGeometry relative="1" as="geometry" />
        </mxCell>
        <mxCell id="GbZqD4_osrSMRL3oigE0-15" value="" style="rounded=1;whiteSpace=wrap;html=1;fillColor=#f8cecc;strokeColor=#b85450;" parent="1" vertex="1">
          <mxGeometry x="515" y="587.5" width="120" height="270" as="geometry" />
        </mxCell>
        <mxCell id="GbZqD4_osrSMRL3oigE0-17" value="Coalesce" style="rounded=0;whiteSpace=wrap;html=1;strokeColor=none;" parent="1" vertex="1">
          <mxGeometry x="525" y="607.5" width="100" height="30" as="geometry" />
        </mxCell>
        <mxCell id="GbZqD4_osrSMRL3oigE0-19" value="Combine" style="rounded=0;whiteSpace=wrap;html=1;strokeColor=none;" parent="1" vertex="1">
          <mxGeometry x="525" y="647" width="100" height="30" as="geometry" />
        </mxCell>
        <mxCell id="GbZqD4_osrSMRL3oigE0-21" value="Pipeline" style="rounded=0;whiteSpace=wrap;html=1;strokeColor=none;" parent="1" vertex="1">
          <mxGeometry x="525" y="687" width="100" height="30" as="geometry" />
        </mxCell>
        <mxCell id="GbZqD4_osrSMRL3oigE0-23" value="Prefetch" style="rounded=0;whiteSpace=wrap;html=1;strokeColor=none;" parent="1" vertex="1">
          <mxGeometry x="525" y="727" width="100" height="30" as="geometry" />
        </mxCell>
        <mxCell id="GbZqD4_osrSMRL3oigE0-28" value="CSE" style="rounded=0;whiteSpace=wrap;html=1;strokeColor=none;" parent="1" vertex="1">
          <mxGeometry x="525" y="767.5" width="100" height="30" as="geometry" />
        </mxCell>
        <mxCell id="GbZqD4_osrSMRL3oigE0-29" value="Licm" style="rounded=0;whiteSpace=wrap;html=1;strokeColor=none;" parent="1" vertex="1">
          <mxGeometry x="525" y="807" width="100" height="30" as="geometry" />
        </mxCell>
        <mxCell id="GbZqD4_osrSMRL3oigE0-30" value="" style="group;" parent="1" vertex="1" connectable="0">
          <mxGeometry x="270" y="585" width="120" height="60" as="geometry" />
        </mxCell>
        <mxCell id="GbZqD4_osrSMRL3oigE0-25" value="" style="rounded=1;whiteSpace=wrap;html=1;fillColor=#f8cecc;strokeColor=#b85450;" parent="GbZqD4_osrSMRL3oigE0-30" vertex="1">
          <mxGeometry width="120" height="60" as="geometry" />
        </mxCell>
        <mxCell id="GbZqD4_osrSMRL3oigE0-26" value="Convert to TTGPU IR" style="rounded=0;whiteSpace=wrap;html=1;strokeColor=none;" parent="GbZqD4_osrSMRL3oigE0-30" vertex="1">
          <mxGeometry x="10" y="15" width="100" height="30" as="geometry" />
        </mxCell>
        <mxCell id="GbZqD4_osrSMRL3oigE0-36" style="edgeStyle=none;rounded=0;orthogonalLoop=1;jettySize=auto;html=1;exitX=1;exitY=0.5;exitDx=0;exitDy=0;entryX=0;entryY=0.5;entryDx=0;entryDy=0;" parent="1" source="GbZqD4_osrSMRL3oigE0-31" target="GbZqD4_osrSMRL3oigE0-15" edge="1">
          <mxGeometry relative="1" as="geometry" />
        </mxCell>
        <mxCell id="GbZqD4_osrSMRL3oigE0-31" value="TritonGPU IR" style="rounded=1;whiteSpace=wrap;html=1;fillColor=#dae8fc;strokeColor=#6c8ebf;" parent="1" vertex="1">
          <mxGeometry x="369" y="700.5" width="90" height="45" as="geometry" />
        </mxCell>
        <mxCell id="GbZqD4_osrSMRL3oigE0-33" style="edgeStyle=none;rounded=0;orthogonalLoop=1;jettySize=auto;html=1;exitX=0.5;exitY=1;exitDx=0;exitDy=0;entryX=0.5;entryY=0;entryDx=0;entryDy=0;" parent="1" source="GbZqD4_osrSMRL3oigE0-25" target="GbZqD4_osrSMRL3oigE0-31" edge="1">
          <mxGeometry relative="1" as="geometry" />
        </mxCell>
        <mxCell id="GbZqD4_osrSMRL3oigE0-38" value="TritonGPU IR" style="rounded=1;whiteSpace=wrap;html=1;fillColor=#dae8fc;strokeColor=#6c8ebf;" parent="1" vertex="1">
          <mxGeometry x="689" y="699.5" width="90" height="45" as="geometry" />
        </mxCell>
        <mxCell id="GbZqD4_osrSMRL3oigE0-40" value="TritonIR Optimization" style="text;html=1;strokeColor=none;fillColor=none;align=center;verticalAlign=middle;whiteSpace=wrap;rounded=0;" parent="1" vertex="1">
          <mxGeometry x="60" y="577.5" width="60" height="30" as="geometry" />
        </mxCell>
        <mxCell id="GbZqD4_osrSMRL3oigE0-41" value="TritonGPU IR Optimization" style="text;html=1;strokeColor=none;fillColor=none;align=center;verticalAlign=middle;whiteSpace=wrap;rounded=0;" parent="1" vertex="1">
          <mxGeometry x="537.5" y="555" width="75" height="30" as="geometry" />
        </mxCell>
        <mxCell id="GbZqD4_osrSMRL3oigE0-42" value="&lt;b&gt;&lt;font color=&quot;#0000ff&quot; face=&quot;Comic Sans MS&quot;&gt;(1)&lt;/font&gt;&lt;/b&gt;" style="text;html=1;strokeColor=none;fillColor=none;align=center;verticalAlign=middle;whiteSpace=wrap;rounded=0;" parent="1" vertex="1">
          <mxGeometry x="120" y="577.5" width="60" height="30" as="geometry" />
        </mxCell>
        <mxCell id="GbZqD4_osrSMRL3oigE0-43" value="&lt;b&gt;&lt;font color=&quot;#0000ff&quot; face=&quot;Comic Sans MS&quot;&gt;(2)&lt;/font&gt;&lt;/b&gt;" style="text;html=1;strokeColor=none;fillColor=none;align=center;verticalAlign=middle;whiteSpace=wrap;rounded=0;" parent="1" vertex="1">
          <mxGeometry x="350" y="555" width="60" height="30" as="geometry" />
        </mxCell>
        <mxCell id="GbZqD4_osrSMRL3oigE0-44" value="&lt;b&gt;&lt;font color=&quot;#0000ff&quot; face=&quot;Comic Sans MS&quot;&gt;(3)&lt;/font&gt;&lt;/b&gt;" style="text;html=1;strokeColor=none;fillColor=none;align=center;verticalAlign=middle;whiteSpace=wrap;rounded=0;" parent="1" vertex="1">
          <mxGeometry x="600" y="557.5" width="60" height="30" as="geometry" />
        </mxCell>
        <mxCell id="Rtg441aMns1zuGuYdtn2-20" style="edgeStyle=orthogonalEdgeStyle;rounded=0;orthogonalLoop=1;jettySize=auto;html=1;exitX=1;exitY=0.5;exitDx=0;exitDy=0;entryX=0;entryY=0.5;entryDx=0;entryDy=0;" edge="1" parent="1" source="Rtg441aMns1zuGuYdtn2-1" target="Rtg441aMns1zuGuYdtn2-2">
          <mxGeometry relative="1" as="geometry" />
        </mxCell>
        <mxCell id="Rtg441aMns1zuGuYdtn2-1" value="Python kernel" style="rounded=1;whiteSpace=wrap;html=1;fillColor=#dae8fc;strokeColor=#6c8ebf;" vertex="1" parent="1">
          <mxGeometry x="-200" y="1035" width="90" height="45" as="geometry" />
        </mxCell>
        <mxCell id="Rtg441aMns1zuGuYdtn2-8" value="cubin" style="rounded=1;whiteSpace=wrap;html=1;fillColor=#dae8fc;strokeColor=#6c8ebf;" vertex="1" parent="1">
          <mxGeometry x="420" y="1035" width="90" height="45" as="geometry" />
        </mxCell>
        <mxCell id="Rtg441aMns1zuGuYdtn2-11" value="" style="group" vertex="1" connectable="0" parent="1">
          <mxGeometry x="-52" y="1032.5" width="90" height="50" as="geometry" />
        </mxCell>
        <mxCell id="Rtg441aMns1zuGuYdtn2-2" value="" style="rounded=1;whiteSpace=wrap;html=1;fillColor=#f8cecc;strokeColor=#b85450;" vertex="1" parent="Rtg441aMns1zuGuYdtn2-11">
          <mxGeometry width="90" height="50" as="geometry" />
        </mxCell>
        <mxCell id="Rtg441aMns1zuGuYdtn2-3" value="Frontend" style="text;html=1;align=center;verticalAlign=middle;whiteSpace=wrap;rounded=0;fillColor=default;" vertex="1" parent="Rtg441aMns1zuGuYdtn2-11">
          <mxGeometry x="15" y="10" width="60" height="30" as="geometry" />
        </mxCell>
        <mxCell id="Rtg441aMns1zuGuYdtn2-13" value="" style="group" vertex="1" connectable="0" parent="1">
          <mxGeometry x="270" y="1032.5" width="90" height="50" as="geometry" />
        </mxCell>
        <mxCell id="Rtg441aMns1zuGuYdtn2-6" value="" style="rounded=1;whiteSpace=wrap;html=1;fillColor=#f8cecc;strokeColor=#b85450;" vertex="1" parent="Rtg441aMns1zuGuYdtn2-13">
          <mxGeometry width="90" height="50" as="geometry" />
        </mxCell>
        <mxCell id="Rtg441aMns1zuGuYdtn2-7" value="Backend" style="text;html=1;align=center;verticalAlign=middle;whiteSpace=wrap;rounded=0;fillColor=default;" vertex="1" parent="Rtg441aMns1zuGuYdtn2-13">
          <mxGeometry x="15" y="10" width="60" height="30" as="geometry" />
        </mxCell>
        <mxCell id="Rtg441aMns1zuGuYdtn2-15" value="" style="group" vertex="1" connectable="0" parent="1">
          <mxGeometry x="110" y="1032.5" width="90" height="50" as="geometry" />
        </mxCell>
        <mxCell id="Rtg441aMns1zuGuYdtn2-4" value="" style="rounded=1;whiteSpace=wrap;html=1;fillColor=#f8cecc;strokeColor=#b85450;" vertex="1" parent="Rtg441aMns1zuGuYdtn2-15">
          <mxGeometry width="90" height="50" as="geometry" />
        </mxCell>
        <mxCell id="Rtg441aMns1zuGuYdtn2-5" value="Optimizer" style="text;html=1;align=center;verticalAlign=middle;whiteSpace=wrap;rounded=0;fillColor=default;" vertex="1" parent="Rtg441aMns1zuGuYdtn2-15">
          <mxGeometry x="15" y="10" width="60" height="30" as="geometry" />
        </mxCell>
        <mxCell id="Rtg441aMns1zuGuYdtn2-17" style="edgeStyle=orthogonalEdgeStyle;rounded=0;orthogonalLoop=1;jettySize=auto;html=1;exitX=1;exitY=0.5;exitDx=0;exitDy=0;entryX=0;entryY=0.5;entryDx=0;entryDy=0;" edge="1" parent="1" source="Rtg441aMns1zuGuYdtn2-2" target="Rtg441aMns1zuGuYdtn2-4">
          <mxGeometry relative="1" as="geometry" />
        </mxCell>
        <mxCell id="Rtg441aMns1zuGuYdtn2-22" value="Triton IR" style="edgeLabel;html=1;align=center;verticalAlign=middle;resizable=0;points=[];" vertex="1" connectable="0" parent="Rtg441aMns1zuGuYdtn2-17">
          <mxGeometry x="-0.0833" y="-2" relative="1" as="geometry">
            <mxPoint y="-2" as="offset" />
          </mxGeometry>
        </mxCell>
        <mxCell id="Rtg441aMns1zuGuYdtn2-18" style="edgeStyle=orthogonalEdgeStyle;rounded=0;orthogonalLoop=1;jettySize=auto;html=1;exitX=1;exitY=0.5;exitDx=0;exitDy=0;entryX=0;entryY=0.5;entryDx=0;entryDy=0;" edge="1" parent="1" source="Rtg441aMns1zuGuYdtn2-4" target="Rtg441aMns1zuGuYdtn2-6">
          <mxGeometry relative="1" as="geometry" />
        </mxCell>
        <mxCell id="Rtg441aMns1zuGuYdtn2-23" value="TritonGPU&lt;br&gt;IR" style="edgeLabel;html=1;align=center;verticalAlign=middle;resizable=0;points=[];" vertex="1" connectable="0" parent="Rtg441aMns1zuGuYdtn2-18">
          <mxGeometry x="-0.2857" y="2" relative="1" as="geometry">
            <mxPoint x="5" y="1" as="offset" />
          </mxGeometry>
        </mxCell>
        <mxCell id="Rtg441aMns1zuGuYdtn2-19" style="edgeStyle=orthogonalEdgeStyle;rounded=0;orthogonalLoop=1;jettySize=auto;html=1;exitX=1;exitY=0.5;exitDx=0;exitDy=0;entryX=0;entryY=0.5;entryDx=0;entryDy=0;" edge="1" parent="1" source="Rtg441aMns1zuGuYdtn2-6" target="Rtg441aMns1zuGuYdtn2-8">
          <mxGeometry relative="1" as="geometry" />
        </mxCell>
      </root>
    </mxGraphModel>
  </diagram>
</mxfile>
